<mxfile host="app.diagrams.net" modified="2023-07-26T21:00:55.080Z" agent="Mozilla/5.0 (Macintosh; Intel Mac OS X 10_15_7) AppleWebKit/537.36 (KHTML, like Gecko) Chrome/114.0.0.0 Safari/537.36" etag="-8jdE0Y5OsnzG4ZwNa1K" version="21.6.5" type="github">
  <diagram name="Sayfa -1" id="lvhEpWdgve-E3t86qFq6">
    <mxGraphModel dx="1368" dy="771" grid="1" gridSize="10" guides="1" tooltips="1" connect="1" arrows="1" fold="1" page="1" pageScale="1" pageWidth="827" pageHeight="1169" math="0" shadow="0">
      <root>
        <mxCell id="0" />
        <mxCell id="1" parent="0" />
        <mxCell id="zbzP6mhrsK6J6j3OST5y-6" value="" style="group" vertex="1" connectable="0" parent="1">
          <mxGeometry x="360" y="40" width="140" height="130" as="geometry" />
        </mxCell>
        <mxCell id="zbzP6mhrsK6J6j3OST5y-2" value="Üniversite" style="swimlane;whiteSpace=wrap;html=1;startSize=50;" vertex="1" parent="zbzP6mhrsK6J6j3OST5y-6">
          <mxGeometry width="140.00000000000003" height="130" as="geometry" />
        </mxCell>
        <mxCell id="zbzP6mhrsK6J6j3OST5y-3" value="" style="endArrow=none;html=1;rounded=0;" edge="1" parent="zbzP6mhrsK6J6j3OST5y-2">
          <mxGeometry width="50" height="50" relative="1" as="geometry">
            <mxPoint y="90" as="sourcePoint" />
            <mxPoint x="140" y="90" as="targetPoint" />
          </mxGeometry>
        </mxCell>
        <mxCell id="zbzP6mhrsK6J6j3OST5y-7" value="" style="group" vertex="1" connectable="0" parent="1">
          <mxGeometry x="40" y="280" width="140" height="130" as="geometry" />
        </mxCell>
        <mxCell id="zbzP6mhrsK6J6j3OST5y-8" value="Sınıflar" style="swimlane;whiteSpace=wrap;html=1;startSize=50;" vertex="1" parent="zbzP6mhrsK6J6j3OST5y-7">
          <mxGeometry width="140.00000000000003" height="130" as="geometry" />
        </mxCell>
        <mxCell id="zbzP6mhrsK6J6j3OST5y-9" value="" style="endArrow=none;html=1;rounded=0;" edge="1" parent="zbzP6mhrsK6J6j3OST5y-8">
          <mxGeometry width="50" height="50" relative="1" as="geometry">
            <mxPoint y="90" as="sourcePoint" />
            <mxPoint x="140" y="90" as="targetPoint" />
          </mxGeometry>
        </mxCell>
        <mxCell id="zbzP6mhrsK6J6j3OST5y-10" value="" style="group" vertex="1" connectable="0" parent="1">
          <mxGeometry x="630" y="280" width="140" height="130" as="geometry" />
        </mxCell>
        <mxCell id="zbzP6mhrsK6J6j3OST5y-11" value="Departmanlar" style="swimlane;whiteSpace=wrap;html=1;startSize=50;" vertex="1" parent="zbzP6mhrsK6J6j3OST5y-10">
          <mxGeometry width="140.00000000000003" height="130" as="geometry" />
        </mxCell>
        <mxCell id="zbzP6mhrsK6J6j3OST5y-12" value="" style="endArrow=none;html=1;rounded=0;" edge="1" parent="zbzP6mhrsK6J6j3OST5y-11">
          <mxGeometry width="50" height="50" relative="1" as="geometry">
            <mxPoint y="90" as="sourcePoint" />
            <mxPoint x="140" y="90" as="targetPoint" />
          </mxGeometry>
        </mxCell>
        <mxCell id="zbzP6mhrsK6J6j3OST5y-13" value="" style="group" vertex="1" connectable="0" parent="1">
          <mxGeometry x="344" y="280" width="140" height="130" as="geometry" />
        </mxCell>
        <mxCell id="zbzP6mhrsK6J6j3OST5y-14" value="Çalışma Ofisleri" style="swimlane;whiteSpace=wrap;html=1;startSize=50;" vertex="1" parent="zbzP6mhrsK6J6j3OST5y-13">
          <mxGeometry width="140.00000000000003" height="130" as="geometry" />
        </mxCell>
        <mxCell id="zbzP6mhrsK6J6j3OST5y-15" value="" style="endArrow=none;html=1;rounded=0;" edge="1" parent="zbzP6mhrsK6J6j3OST5y-14">
          <mxGeometry width="50" height="50" relative="1" as="geometry">
            <mxPoint y="90" as="sourcePoint" />
            <mxPoint x="140" y="90" as="targetPoint" />
          </mxGeometry>
        </mxCell>
        <mxCell id="zbzP6mhrsK6J6j3OST5y-16" value="" style="endArrow=none;html=1;rounded=0;exitX=0.5;exitY=0;exitDx=0;exitDy=0;" edge="1" parent="1" source="zbzP6mhrsK6J6j3OST5y-8">
          <mxGeometry width="50" height="50" relative="1" as="geometry">
            <mxPoint x="300" y="300" as="sourcePoint" />
            <mxPoint x="700" y="250" as="targetPoint" />
            <Array as="points">
              <mxPoint x="110" y="250" />
            </Array>
          </mxGeometry>
        </mxCell>
        <mxCell id="zbzP6mhrsK6J6j3OST5y-17" value="" style="endArrow=none;html=1;rounded=0;exitX=0.5;exitY=0;exitDx=0;exitDy=0;" edge="1" parent="1" source="zbzP6mhrsK6J6j3OST5y-14">
          <mxGeometry width="50" height="50" relative="1" as="geometry">
            <mxPoint x="300" y="300" as="sourcePoint" />
            <mxPoint x="414" y="250" as="targetPoint" />
          </mxGeometry>
        </mxCell>
        <mxCell id="zbzP6mhrsK6J6j3OST5y-18" value="" style="endArrow=none;html=1;rounded=0;exitX=0.5;exitY=0;exitDx=0;exitDy=0;" edge="1" parent="1" source="zbzP6mhrsK6J6j3OST5y-11">
          <mxGeometry width="50" height="50" relative="1" as="geometry">
            <mxPoint x="424" y="290" as="sourcePoint" />
            <mxPoint x="700" y="250" as="targetPoint" />
          </mxGeometry>
        </mxCell>
        <mxCell id="zbzP6mhrsK6J6j3OST5y-22" value="" style="rhombus;" vertex="1" parent="1">
          <mxGeometry x="420" y="170" width="20" height="20" as="geometry" />
        </mxCell>
        <mxCell id="zbzP6mhrsK6J6j3OST5y-25" value="" style="endArrow=none;html=1;rounded=0;entryX=0.5;entryY=1;entryDx=0;entryDy=0;" edge="1" parent="1" target="zbzP6mhrsK6J6j3OST5y-22">
          <mxGeometry width="50" height="50" relative="1" as="geometry">
            <mxPoint x="430" y="250" as="sourcePoint" />
            <mxPoint x="320" y="340" as="targetPoint" />
          </mxGeometry>
        </mxCell>
      </root>
    </mxGraphModel>
  </diagram>
</mxfile>
